<?xml version="1.0" encoding="utf-8"?>
<!-- Generator: Adobe Illustrator 26.0.2, SVG Export Plug-In . SVG Version: 6.00 Build 0)  -->
<svg version="1.1" id="Layer_1" xmlns="http://www.w3.org/2000/svg" xmlns:xlink="http://www.w3.org/1999/xlink" x="0px" y="0px"
	 viewBox="0 0 624 120" enable-background="new 0 0 624 120" xml:space="preserve">
<g>
	<polygon fill-rule="evenodd" clip-rule="evenodd" fill="#ED6E00" points="170.34,18.79 177.17,43.26 158.67,42.9 	"/>
	<polygon fill-rule="evenodd" clip-rule="evenodd" fill="#00669E" points="136.67,58.2 146.36,61.87 140.07,74.87 	"/>
	<polygon fill-rule="evenodd" clip-rule="evenodd" fill="#00B8E0" points="147.6,59.32 136.01,54.94 134.03,45.24 154.22,45.63 	"/>
	<polygon fill-rule="evenodd" clip-rule="evenodd" fill="#F7B512" points="141.97,77.39 149.01,62.86 174.53,72.52 	"/>
	<polygon fill-rule="evenodd" clip-rule="evenodd" fill="#DBE836" points="122.71,49.91 122.74,45.02 131.15,45.18 132.9,53.77 	"/>
	<polygon fill-rule="evenodd" clip-rule="evenodd" fill="#ED6E00" points="122.51,80.31 122.69,52.92 133.57,57.03 137.84,78.01 	
		"/>
	<polygon fill-rule="evenodd" clip-rule="evenodd" fill="#D1CCC4" points="109.06,44.76 119.93,44.97 119.9,48.85 	"/>
	<path fill-rule="evenodd" clip-rule="evenodd" fill="#DBE836" d="M198.28,43.67c-4.46-12.34-13.84-22.32-25.77-27.59l7.6,27.24
		L198.28,43.67z"/>
	<path fill-rule="evenodd" clip-rule="evenodd" fill="#00B8E0" d="M192.44,87.55c5.47-7.8,8.69-17.29,8.69-27.55
		c0-4.69-0.67-9.22-1.93-13.51l-18.31-0.36L192.44,87.55z"/>
	<path fill-rule="evenodd" clip-rule="evenodd" fill="#707061" d="M172.15,104.09c7.11-3.07,13.32-7.81,18.16-13.72l-12.35-44.28
		l-20.64-0.4l-7.08,14.63l35.39,13.38l-20.22,3.03L172.15,104.09z"/>
	<path fill-rule="evenodd" clip-rule="evenodd" fill="#ED6E00" d="M146.74,107.58c2.09,0.28,4.23,0.42,6.39,0.42
		c5.75,0,11.26-1.01,16.38-2.87l-6.89-27.99l-21.42,3.21L146.74,107.58z"/>
	<path fill-rule="evenodd" clip-rule="evenodd" fill="#D1CCC4" d="M130.02,102.08c4.23,2.33,8.86,4.04,13.75,5.01l-4.79-23.51
		L130.02,102.08z"/>
	<path fill-rule="evenodd" clip-rule="evenodd" fill="#707061" d="M122.4,96.87c1.64,1.37,3.38,2.63,5.2,3.78l9.53-19.68
		l-14.63,2.19L122.4,96.87z"/>
	<path fill-rule="evenodd" clip-rule="evenodd" fill="#D1CCC4" d="M111.98,84.73c2.12,3.53,4.69,6.76,7.62,9.62l0.07-10.77
		L111.98,84.73z"/>
	<path fill-rule="evenodd" clip-rule="evenodd" fill="#DBE836" d="M106.93,46.96c-1.17,4.15-1.8,8.52-1.8,13.05
		c0,7.97,1.94,15.49,5.38,22.1l9.18-1.38l0.19-28.88L106.93,46.96z"/>
	<path fill-rule="evenodd" clip-rule="evenodd" fill="#007A5E" d="M120.06,25.22c-4.9,4.66-8.81,10.35-11.4,16.71l11.29,0.22
		L120.06,25.22z"/>
	<path fill-rule="evenodd" clip-rule="evenodd" fill="#ED6E00" d="M126.09,20.35c-1.1,0.75-2.17,1.55-3.21,2.39l-0.13,19.47
		l7.82,0.15L126.09,20.35z"/>
	<path fill-rule="evenodd" clip-rule="evenodd" fill="#F7B512" d="M146.89,12.41c-6.6,0.86-12.78,3.06-18.26,6.32l4.83,23.69
		l16.88,0.33L146.89,12.41z"/>
	<path fill-rule="evenodd" clip-rule="evenodd" fill="#00B8E0" d="M153.13,12.01c-1.15,0-2.3,0.04-3.44,0.12l3.48,30.66l2.39,0.05
		l13.59-28.09C164.15,12.98,158.75,12.01,153.13,12.01z"/>
	<path fill-rule="evenodd" clip-rule="evenodd" fill="#00669E" d="M278.14,17.15c-6.92-2.87-13.85-4.54-21.37-4.54
		c-12.66,0-25.43,5.49-34.27,14.57c-8.6,8.84-13.25,20.66-13.25,32.95c0,13.37,4.54,25.07,14.45,34.03
		c9.31,8.48,21.25,13.25,33.79,13.25c7.28,0,12.89-1.79,20.65-4.18V75.17c-4.89,5.85-12.54,9.55-20.18,9.55
		c-14.57,0-24.36-10.27-24.36-24.48c0-13.97,9.67-24.95,24-24.95c8,0,15.76,3.46,20.54,9.91V17.15z"/>
	<polygon fill-rule="evenodd" clip-rule="evenodd" fill="#00669E" points="35.41,49.74 35.41,15 12.01,15 12.01,105.02 
		35.41,105.02 35.41,68.13 69.2,68.13 69.2,105.02 92.6,105.02 92.6,15 69.2,15 69.2,49.74 	"/>
	<g>
		<path fill-rule="evenodd" clip-rule="evenodd" fill="#00B8E0" d="M340.22,105.02h33.19c24.95,0,45.73-19.7,45.73-45.01
			c0-25.31-20.66-45.01-45.73-45.01h-33.19V105.02L340.22,105.02z M363.63,34.82h5.49c15.04,0,25.67,9.07,25.67,25.19
			c0,17.55-11.94,25.19-25.91,25.19h-5.25V34.82z"/>
		<path fill-rule="evenodd" clip-rule="evenodd" fill="#ED6E00" d="M482.03,89.38l5.85,15.64h24.95L478.92,15h-25.55l-34.62,90.02
			h24.84l6.21-15.64H482.03L482.03,89.38z M475.7,71.47h-19.46l9.67-28.65h0.24L475.7,71.47z"/>
		<path fill-rule="evenodd" clip-rule="evenodd" fill="#F7B512" d="M562.22,12.01c-25.91,0-49.79,19.1-49.79,46.33
			c0,29.13,20.89,49.67,49.79,49.67c28.89,0,49.79-20.54,49.79-49.67C612.01,31.12,588.13,12.01,562.22,12.01L562.22,12.01z
			 M562.22,34.7c13.97,0,25.43,11.34,25.43,23.76c0,15.52-11.46,26.86-25.43,26.86c-13.97,0-25.43-11.34-25.43-26.86
			C536.79,46.04,548.25,34.7,562.22,34.7z"/>
	</g>
	<rect x="292.11" y="57.74" fill-rule="evenodd" clip-rule="evenodd" fill="#00669E" width="34.15" height="17.91"/>
</g>
</svg>
